<?xml version="1.0" standalone="no"?>
<!DOCTYPE svg PUBLIC "-//W3C//DTD SVG 20010904//EN"
 "http://www.w3.org/TR/2001/REC-SVG-20010904/DTD/svg10.dtd">
<svg version="1.0" xmlns="http://www.w3.org/2000/svg"
 width="200.000000pt" height="200.000000pt" viewBox="0 0 200.000000 200.000000"
 preserveAspectRatio="xMidYMid meet">
<metadata>
Created by potrace 1.14, written by Peter Selinger 2001-2017
</metadata>
<g transform="translate(0.000000,200.000000) scale(0.100000,-0.100000)"
fill="#000000" stroke="none">
<path d="M221 1983 c-85 -29 -152 -89 -193 -171 l-23 -47 0 -765 0 -765 25
-49 c31 -63 96 -127 158 -157 l47 -24 739 -3 c812 -3 802 -4 890 58 51 35 71
59 105 124 l26 51 0 765 0 765 -25 49 c-45 88 -110 143 -200 170 -48 14 -138
16 -780 16 -626 -1 -731 -3 -769 -17z"/>
</g>
</svg>
